<svg width="270" height="47" viewBox="0 0 270 47" fill="none" xmlns="http://www.w3.org/2000/svg">
<path d="M16.3621 5L9.93416 5.00014L0 47H8.18107L15.1934 17.8335L26.218 36.5001H28.3649L42.9506 11.1251H50.7942C51.2135 11.1251 51.6343 11.1573 52.0459 11.2371C60.383 12.855 64.2798 18.4079 64.2798 25.8543C64.2798 33.4835 59.0206 40.0001 51.4239 40.5835C47.3333 40.5835 43.8272 40.5833 43.8272 40.5833V26.0001L37.107 37.0833V47H51.2426C51.7528 47 52.2628 46.9625 52.7638 46.8664C63.1979 44.8642 71 36.7897 71 26C71 15.2229 63.7721 7.43247 52.8414 5.16113C52.2895 5.04643 51.7256 5 51.1618 5.00001C44.8852 5.00008 37.3992 5 37.3992 5L27.1728 24.25L16.3621 5Z" fill="#8F6E56"/>
<path d="M98.1899 24.656H97.2939L105.582 7.8H107.822V26H105.582V11.692L106.03 11.804L98.8619 26H96.6219L89.4539 11.832L89.9019 11.72V26H87.6619V7.8H89.9019L98.1899 24.656ZM120.419 26.28C118.757 26.28 117.245 25.8973 115.883 25.132C114.539 24.348 113.465 23.256 112.663 21.856C111.86 20.456 111.459 18.804 111.459 16.9C111.459 14.996 111.86 13.344 112.663 11.944C113.465 10.5253 114.539 9.43333 115.883 8.668C117.245 7.90267 118.757 7.52 120.419 7.52C122.08 7.52 123.583 7.90267 124.927 8.668C126.289 9.43333 127.372 10.5253 128.175 11.944C128.977 13.344 129.379 14.996 129.379 16.9C129.379 18.804 128.977 20.456 128.175 21.856C127.372 23.256 126.289 24.348 124.927 25.132C123.583 25.8973 122.08 26.28 120.419 26.28ZM120.419 24.18C121.688 24.18 122.827 23.9093 123.835 23.368C124.843 22.808 125.645 21.9867 126.243 20.904C126.84 19.8213 127.139 18.4867 127.139 16.9C127.139 15.3133 126.84 13.988 126.243 12.924C125.645 11.8413 124.843 11.02 123.835 10.46C122.827 9.9 121.688 9.62 120.419 9.62C119.168 9.62 118.029 9.9 117.003 10.46C115.995 11.02 115.192 11.8413 114.595 12.924C113.997 13.988 113.699 15.3133 113.699 16.9C113.699 18.4867 113.997 19.8213 114.595 20.904C115.192 21.9867 115.995 22.808 117.003 23.368C118.029 23.9093 119.168 24.18 120.419 24.18ZM145.765 19V7.8H148.005V19C148.005 20.0267 147.884 20.9413 147.641 21.744C147.398 22.528 147.053 23.2093 146.605 23.788C146.176 24.3667 145.653 24.8427 145.037 25.216C144.421 25.5707 143.73 25.832 142.965 26C142.218 26.1867 141.416 26.28 140.557 26.28C139.68 26.28 138.858 26.1867 138.093 26C137.328 25.832 136.628 25.5707 135.993 25.216C135.377 24.8427 134.845 24.3667 134.397 23.788C133.968 23.2093 133.632 22.528 133.389 21.744C133.146 20.9413 133.025 20.0267 133.025 19V7.8H135.265V19C135.265 20.4 135.508 21.4733 135.993 22.22C136.478 22.9667 137.122 23.48 137.925 23.76C138.728 24.04 139.605 24.18 140.557 24.18C141.49 24.18 142.349 24.04 143.133 23.76C143.917 23.48 144.552 22.9667 145.037 22.22C145.522 21.4733 145.765 20.4 145.765 19ZM166.55 23.34L165.934 23.536V7.8H168.174V26H165.934L154.118 10.488L154.734 10.292V26H152.494V7.8H154.734L166.55 23.34ZM170.826 7.8H185.386V9.9H170.826V7.8ZM176.986 9.676H179.226V26H176.986V9.676ZM204.196 7.884C206.23 7.884 207.929 8.12667 209.292 8.612C210.654 9.09733 211.737 9.76 212.54 10.6C213.361 11.4213 213.94 12.3733 214.276 13.456C214.63 14.5387 214.808 15.6773 214.808 16.872C214.808 18.0667 214.612 19.2147 214.22 20.316C213.846 21.4173 213.24 22.3973 212.4 23.256C211.578 24.096 210.486 24.768 209.124 25.272C207.78 25.7573 206.137 26 204.196 26H193.836V7.884H204.196ZM197.56 22.808H204.112C205.456 22.808 206.566 22.6493 207.444 22.332C208.34 21.996 209.049 21.548 209.572 20.988C210.094 20.428 210.468 19.7933 210.692 19.084C210.916 18.3747 211.028 17.6373 211.028 16.872C211.028 16.1067 210.916 15.3787 210.692 14.688C210.468 13.9973 210.094 13.3813 209.572 12.84C209.049 12.2987 208.34 11.8693 207.444 11.552C206.566 11.2347 205.456 11.076 204.112 11.076H197.56V22.808ZM218.977 7.884H222.701V26H218.977V7.884ZM233.935 26L225.927 7.884H230.043L236.903 24.236H235.615L242.447 7.884H246.507L238.583 26H233.935ZM252.958 18.44V22.892H266.93V26H249.234V7.884H266.902V10.992H252.958V15.5H264.382V18.44H252.958Z" fill="#8F6E56"/>
<path d="M107.854 41.468H108.718C108.742 41.804 108.842 42.104 109.018 42.368C109.194 42.632 109.434 42.84 109.738 42.992C110.05 43.144 110.414 43.22 110.83 43.22C111.19 43.22 111.49 43.168 111.73 43.064C111.978 42.952 112.162 42.8 112.282 42.608C112.41 42.416 112.474 42.192 112.474 41.936C112.474 41.672 112.41 41.46 112.282 41.3C112.154 41.14 111.97 41.004 111.73 40.892C111.49 40.78 111.206 40.672 110.878 40.568C110.566 40.472 110.25 40.36 109.93 40.232C109.61 40.104 109.31 39.948 109.03 39.764C108.758 39.58 108.538 39.36 108.37 39.104C108.202 38.84 108.118 38.524 108.118 38.156C108.118 37.796 108.214 37.46 108.406 37.148C108.606 36.828 108.894 36.572 109.27 36.38C109.654 36.18 110.114 36.08 110.65 36.08C111.49 36.08 112.118 36.308 112.534 36.764C112.95 37.22 113.15 37.824 113.134 38.576H112.27C112.254 38.008 112.094 37.6 111.79 37.352C111.486 37.104 111.09 36.98 110.602 36.98C110.194 36.98 109.838 37.076 109.534 37.268C109.23 37.452 109.078 37.744 109.078 38.144C109.078 38.32 109.11 38.476 109.174 38.612C109.246 38.74 109.358 38.86 109.51 38.972C109.67 39.084 109.882 39.196 110.146 39.308C110.418 39.412 110.75 39.528 111.142 39.656C111.398 39.736 111.658 39.832 111.922 39.944C112.194 40.056 112.442 40.196 112.666 40.364C112.898 40.532 113.082 40.748 113.218 41.012C113.362 41.268 113.434 41.592 113.434 41.984C113.434 42.36 113.342 42.712 113.158 43.04C112.982 43.36 112.702 43.62 112.318 43.82C111.942 44.02 111.454 44.12 110.854 44.12C110.342 44.12 109.902 44.052 109.534 43.916C109.174 43.772 108.878 43.588 108.646 43.364C108.414 43.14 108.234 42.908 108.106 42.668C107.986 42.42 107.906 42.188 107.866 41.972C107.826 41.756 107.822 41.588 107.854 41.468ZM115.618 41.24V40.34H118.066C118.546 40.34 118.934 40.192 119.23 39.896C119.534 39.592 119.686 39.2 119.686 38.72C119.686 38.224 119.534 37.832 119.23 37.544C118.934 37.248 118.546 37.1 118.066 37.1H115.81V44H114.85V36.2H118.066C118.426 36.2 118.762 36.256 119.074 36.368C119.386 36.48 119.658 36.644 119.89 36.86C120.13 37.076 120.314 37.34 120.442 37.652C120.578 37.964 120.646 38.32 120.646 38.72C120.646 39.12 120.578 39.476 120.442 39.788C120.314 40.1 120.13 40.364 119.89 40.58C119.658 40.796 119.386 40.96 119.074 41.072C118.762 41.184 118.426 41.24 118.066 41.24H115.618ZM125.397 44.12C124.685 44.12 124.037 43.956 123.453 43.628C122.877 43.292 122.417 42.824 122.073 42.224C121.729 41.624 121.557 40.916 121.557 40.1C121.557 39.284 121.729 38.576 122.073 37.976C122.417 37.368 122.877 36.9 123.453 36.572C124.037 36.244 124.685 36.08 125.397 36.08C126.109 36.08 126.753 36.244 127.329 36.572C127.913 36.9 128.377 37.368 128.721 37.976C129.065 38.576 129.237 39.284 129.237 40.1C129.237 40.916 129.065 41.624 128.721 42.224C128.377 42.824 127.913 43.292 127.329 43.628C126.753 43.956 126.109 44.12 125.397 44.12ZM125.397 43.22C125.941 43.22 126.429 43.104 126.861 42.872C127.293 42.632 127.637 42.28 127.893 41.816C128.149 41.352 128.277 40.78 128.277 40.1C128.277 39.42 128.149 38.852 127.893 38.396C127.637 37.932 127.293 37.58 126.861 37.34C126.429 37.1 125.941 36.98 125.397 36.98C124.861 36.98 124.373 37.1 123.933 37.34C123.501 37.58 123.157 37.932 122.901 38.396C122.645 38.852 122.517 39.42 122.517 40.1C122.517 40.78 122.645 41.352 122.901 41.816C123.157 42.28 123.501 42.632 123.933 42.872C124.373 43.104 124.861 43.22 125.397 43.22ZM130.8 44V36.2H134.244C134.788 36.2 135.252 36.284 135.636 36.452C136.02 36.612 136.312 36.856 136.512 37.184C136.72 37.512 136.824 37.924 136.824 38.42C136.824 38.756 136.768 39.044 136.656 39.284C136.552 39.524 136.404 39.728 136.212 39.896C136.02 40.056 135.792 40.18 135.528 40.268C135.272 40.356 134.992 40.412 134.688 40.436L134.652 40.376C135.076 40.392 135.44 40.444 135.744 40.532C136.048 40.62 136.284 40.78 136.452 41.012C136.62 41.244 136.704 41.592 136.704 42.056V44H135.744V42.056C135.744 41.736 135.688 41.488 135.576 41.312C135.472 41.128 135.292 41 135.036 40.928C134.788 40.848 134.444 40.808 134.004 40.808H131.76V44H130.8ZM131.76 39.908H134.244C134.788 39.908 135.192 39.772 135.456 39.5C135.728 39.22 135.864 38.86 135.864 38.42C135.864 37.996 135.728 37.672 135.456 37.448C135.192 37.216 134.788 37.1 134.244 37.1H131.76V39.908ZM137.719 36.2H143.959V37.1H137.719V36.2ZM140.359 37.004H141.319V44H140.359V37.004ZM144.569 41.468H145.433C145.457 41.804 145.557 42.104 145.733 42.368C145.909 42.632 146.149 42.84 146.453 42.992C146.765 43.144 147.129 43.22 147.545 43.22C147.905 43.22 148.205 43.168 148.445 43.064C148.693 42.952 148.877 42.8 148.997 42.608C149.125 42.416 149.189 42.192 149.189 41.936C149.189 41.672 149.125 41.46 148.997 41.3C148.869 41.14 148.685 41.004 148.445 40.892C148.205 40.78 147.921 40.672 147.593 40.568C147.281 40.472 146.965 40.36 146.645 40.232C146.325 40.104 146.025 39.948 145.745 39.764C145.473 39.58 145.253 39.36 145.085 39.104C144.917 38.84 144.833 38.524 144.833 38.156C144.833 37.796 144.929 37.46 145.121 37.148C145.321 36.828 145.609 36.572 145.985 36.38C146.369 36.18 146.829 36.08 147.365 36.08C148.205 36.08 148.833 36.308 149.249 36.764C149.665 37.22 149.865 37.824 149.849 38.576H148.985C148.969 38.008 148.809 37.6 148.505 37.352C148.201 37.104 147.805 36.98 147.317 36.98C146.909 36.98 146.553 37.076 146.249 37.268C145.945 37.452 145.793 37.744 145.793 38.144C145.793 38.32 145.825 38.476 145.889 38.612C145.961 38.74 146.073 38.86 146.225 38.972C146.385 39.084 146.597 39.196 146.861 39.308C147.133 39.412 147.465 39.528 147.857 39.656C148.113 39.736 148.373 39.832 148.637 39.944C148.909 40.056 149.157 40.196 149.381 40.364C149.613 40.532 149.797 40.748 149.933 41.012C150.077 41.268 150.149 41.592 150.149 41.984C150.149 42.36 150.057 42.712 149.873 43.04C149.697 43.36 149.417 43.62 149.033 43.82C148.657 44.02 148.169 44.12 147.569 44.12C147.057 44.12 146.617 44.052 146.249 43.916C145.889 43.772 145.593 43.588 145.361 43.364C145.129 43.14 144.949 42.908 144.821 42.668C144.701 42.42 144.621 42.188 144.581 41.972C144.541 41.756 144.537 41.588 144.569 41.468ZM154.972 41.96V41.06H158.716V41.96H154.972ZM153.388 44L156.352 36.2H157.36L160.348 44H159.316L156.712 36.944H157L154.396 44H153.388ZM167.574 42.86L167.31 42.944V36.2H168.27V44H167.31L162.246 37.352L162.51 37.268V44H161.55V36.2H162.51L167.574 42.86ZM172.719 36.2C173.503 36.2 174.159 36.304 174.687 36.512C175.223 36.712 175.651 36.992 175.971 37.352C176.291 37.712 176.523 38.124 176.667 38.588C176.811 39.052 176.883 39.544 176.883 40.064C176.883 40.584 176.807 41.08 176.655 41.552C176.503 42.024 176.259 42.444 175.923 42.812C175.595 43.18 175.167 43.472 174.639 43.688C174.111 43.896 173.471 44 172.719 44H170.187V36.2H172.719ZM171.147 43.1H172.719C173.351 43.1 173.871 43.012 174.279 42.836C174.695 42.66 175.023 42.428 175.263 42.14C175.503 41.844 175.671 41.516 175.767 41.156C175.871 40.796 175.923 40.432 175.923 40.064C175.923 39.696 175.871 39.336 175.767 38.984C175.671 38.632 175.503 38.316 175.263 38.036C175.023 37.748 174.695 37.52 174.279 37.352C173.871 37.184 173.351 37.1 172.719 37.1H171.147V43.1ZM186.992 42.86L186.728 42.944V36.2H187.688V44H186.728L181.664 37.352L181.928 37.268V44H180.968V36.2H181.928L186.992 42.86ZM190.469 41.96V41.06H194.213V41.96H190.469ZM188.885 44L191.849 36.2H192.857L195.845 44H194.813L192.209 36.944H192.497L189.893 44H188.885ZM195.551 36.2H201.791V37.1H195.551V36.2ZM198.191 37.004H199.151V44H198.191V37.004ZM208.389 41V36.2H209.349V41C209.349 41.44 209.297 41.832 209.193 42.176C209.089 42.512 208.941 42.804 208.749 43.052C208.565 43.3 208.341 43.504 208.077 43.664C207.813 43.816 207.517 43.928 207.189 44C206.869 44.08 206.525 44.12 206.157 44.12C205.781 44.12 205.429 44.08 205.101 44C204.773 43.928 204.473 43.816 204.201 43.664C203.937 43.504 203.709 43.3 203.517 43.052C203.333 42.804 203.189 42.512 203.085 42.176C202.981 41.832 202.929 41.44 202.929 41V36.2H203.889V41C203.889 41.6 203.993 42.06 204.201 42.38C204.409 42.7 204.685 42.92 205.029 43.04C205.373 43.16 205.749 43.22 206.157 43.22C206.557 43.22 206.925 43.16 207.261 43.04C207.597 42.92 207.869 42.7 208.077 42.38C208.285 42.06 208.389 41.6 208.389 41ZM211.273 44V36.2H214.717C215.261 36.2 215.725 36.284 216.109 36.452C216.493 36.612 216.785 36.856 216.985 37.184C217.193 37.512 217.297 37.924 217.297 38.42C217.297 38.756 217.241 39.044 217.129 39.284C217.025 39.524 216.877 39.728 216.685 39.896C216.493 40.056 216.265 40.18 216.001 40.268C215.745 40.356 215.465 40.412 215.161 40.436L215.125 40.376C215.549 40.392 215.913 40.444 216.217 40.532C216.521 40.62 216.757 40.78 216.924 41.012C217.093 41.244 217.177 41.592 217.177 42.056V44H216.217V42.056C216.217 41.736 216.161 41.488 216.049 41.312C215.945 41.128 215.765 41 215.509 40.928C215.261 40.848 214.917 40.808 214.477 40.808H212.233V44H211.273ZM212.233 39.908H214.717C215.261 39.908 215.665 39.772 215.929 39.5C216.201 39.22 216.337 38.86 216.337 38.42C216.337 37.996 216.201 37.672 215.929 37.448C215.665 37.216 215.261 37.1 214.717 37.1H212.233V39.908ZM219.932 40.568V43.1H224.504V44H218.972V36.2H224.492V37.1H219.932V39.668H223.664V40.568H219.932Z" fill="#8F6E56"/>
</svg>
