<svg width="348" height="204" viewBox="0 0 348 204" fill="none" xmlns="http://www.w3.org/2000/svg">
<path opacity="0.1" fill-rule="evenodd" clip-rule="evenodd" d="M89.895 206.163C113.092 205.835 136.273 205.521 159.455 205.256L167.01 204.989C200.358 203.864 233.597 204.317 266.977 204.286C266.774 201.438 263.958 199.671 261.111 197.904C258.061 196.011 254.98 194.103 253.791 190.739C252.807 187.971 254.715 184.389 256.686 180.682C258.532 177.225 260.456 173.596 259.485 172.063C255.715 166.151 255.544 160.191 255.403 155.499C255.325 152.479 255.247 150.103 254.261 149.367C251.383 147.255 246.612 147.709 241.747 148.179C236.069 148.726 230.266 149.274 225.809 146.193C212.544 137.027 216.157 128.955 219.99 120.415C221.085 117.959 222.211 115.441 222.821 112.938C223.071 111.921 224.103 111.28 225.135 111.531C226.153 111.781 226.793 112.812 226.543 113.845C225.855 116.692 224.65 119.366 223.477 121.979C220.333 129.017 217.346 135.681 227.998 143.048C231.298 145.332 236.397 144.831 241.388 144.362C246.988 143.83 252.493 143.298 256.544 146.301C259.016 148.131 259.109 151.322 259.234 155.405C259.359 159.612 259.515 164.977 262.707 170.014C264.896 173.424 262.426 178.053 260.08 182.481C258.516 185.437 256.998 188.284 257.42 189.473C258.155 191.537 260.658 193.102 263.145 194.65C267.041 197.075 270.935 199.499 270.873 204.379C281.322 204.332 291.786 204.316 302.251 204.316L295.947 117.378C295.071 116.595 294.07 115.767 293.257 114.953C290.582 112.466 288.377 110.073 286.343 107.555C284.325 105.052 282.495 102.424 280.54 99.4208C277.13 94.1958 276.332 91.8508 275.034 87.9858C274.581 86.6408 274.063 85.0918 273.376 83.2618C270.279 74.9708 265.837 75.4568 260.69 76.0198C257.984 76.3168 255.122 76.6458 251.993 76.0828C246.018 75.0038 241.138 73.2988 236.743 70.7178C232.393 68.1678 228.561 64.7898 224.636 60.3308L224.542 60.2058C221.569 56.7658 219.364 53.6048 217.205 50.5088C214.14 46.1278 211.152 41.8428 205.865 36.7588L202.595 33.7718C200.921 32.2548 199.248 30.7378 197.746 29.2978L197.699 29.2508C197.026 28.5788 196.416 27.9218 195.838 27.2018L195.729 27.0768C195.166 26.3568 194.633 25.5908 194.118 24.7148L194.055 24.5898C193.711 24.0108 193.632 22.9938 193.507 21.4928C193.179 17.7228 192.522 9.99577 189.002 4.89577C184.842 -1.08023 176.223 -3.48824 158.032 8.91676C155.639 11.7468 156.076 13.4528 156.593 15.5018C157.14 17.6448 157.766 20.0848 156.827 23.7758C156.201 26.2468 155.654 27.9048 155.216 29.2818C154.168 32.4728 153.621 34.1158 153.73 42.0768C153.824 47.9588 152.525 51.8378 151.181 55.9048C149.898 59.7528 148.553 63.7878 148.412 69.9818C148.38 71.7498 148.193 76.7858 147.724 80.7278C147.411 83.3718 146.942 85.6858 146.254 86.7188C146.144 86.8908 145.988 87.0468 145.831 87.1718C142.828 89.5028 139.418 91.6768 136.102 93.8048L131.801 96.6048C128.062 99.1078 122.681 106.897 119.069 112.137L117.348 114.624C110.168 124.775 108.855 132.877 107.65 140.261C106.117 149.694 104.772 158.03 93.009 167.869C74.568 183.197 77.023 186.873 87.378 202.375L89.895 206.163ZM89.175 114.016C71.844 142.766 43.689 178.836 23.573 207.117L85.327 206.225L84.185 204.504C72.282 186.688 69.466 182.465 90.551 164.93C101.219 155.998 102.455 148.319 103.878 139.653C105.13 131.848 106.538 123.292 114.202 112.421L115.907 109.966C119.693 104.476 125.324 96.3248 129.672 93.4328L134.037 90.5848C137.165 88.5668 140.388 86.5178 143.156 84.3908C143.437 83.7338 143.688 82.1688 143.907 80.2918C144.376 76.3968 144.564 71.5958 144.595 69.9058C144.736 63.1338 146.175 58.8148 147.536 54.7178C148.787 50.9478 149.992 47.3658 149.913 42.1258C149.788 33.4908 150.382 31.6608 151.555 28.0958C151.993 26.7668 152.509 25.1868 153.103 22.8558C153.807 20.0868 153.307 18.1478 152.869 16.4588C152.619 15.4728 152.384 14.5348 152.29 13.5968C151.007 15.0818 150.773 16.1938 150.491 17.5378C150.131 19.2428 149.693 21.2608 147.957 24.2788C146.518 26.7668 145.251 28.4398 144.203 29.8328C141.935 32.8668 140.777 34.4158 141.028 42.0328C141.231 48.2898 138.197 52.2788 135.006 56.4708C132.159 60.2088 129.171 64.1358 128.874 70.0168L128.843 70.4868C128.484 77.8538 128.436 78.5578 125.433 85.8318C125.245 86.4108 124.791 86.8948 124.165 87.0828L113.373 90.3528C110.088 91.3378 107.304 92.4488 104.519 93.5428C102.361 94.4028 100.186 95.2638 97.981 96.0298C97.48 96.2018 97.027 96.3108 96.651 96.4048C96.229 96.5138 96.01 96.5768 95.666 96.9998C93.945 99.1278 93.898 100.88 93.835 102.694C93.757 105.165 93.679 107.746 91.145 111.265L89.175 114.016ZM58.861 99.3288C57.688 102.614 56.64 105.288 55.608 107.963C54.278 111.373 52.949 114.799 51.353 119.398C49.898 123.574 47.943 126.093 46.051 128.533C43.564 131.724 41.218 134.759 40.78 141.735L40.749 142.689C40.749 143.877 40.733 144.863 40.045 146.005C39.247 147.334 38.527 148.335 37.714 149.227C36.901 150.134 36.041 150.885 34.977 151.746L25.357 159.379C21.994 162.007 21.055 163.743 19.804 166.059C19.053 167.451 18.177 169.045 16.722 171.111C15.627 172.643 14.861 173.333 14.079 174.005C13.641 174.38 13.219 174.756 12.734 175.319C11.404 176.852 10.153 177.9 8.948 178.901C8.00999 179.667 7.103 180.434 6.242 181.356C5.57 182.107 4.91199 182.717 4.271 183.312L4.177 183.42C3.614 183.953 3.035 184.484 2.456 185.109C-2.925 190.897 -7.868 196.247 -13.061 201.879L-18.598 207.869C-6.663 207.431 5.224 207.181 18.129 207.165L68.746 136.072C74.205 128.377 79.664 120.713 84.607 113.783C82.261 112.891 80.196 112.562 78.256 112.265C73.548 111.514 69.356 110.857 63.208 104.069L61.879 102.615C60.628 101.205 59.674 100.172 58.861 99.3288ZM-24.01 208.071L-15.892 199.28C-10.965 193.946 -6.319 188.894 -0.344002 182.497C0.328999 181.776 0.954002 181.183 1.565 180.604L1.659 180.541C2.222 180.009 2.801 179.461 3.427 178.773C4.443 177.646 5.476 176.802 6.508 175.941C7.603 175.019 8.745 174.08 9.84 172.813C10.497 172.046 11.029 171.578 11.545 171.125C12.155 170.592 12.765 170.061 13.594 168.888C14.908 167.027 15.721 165.54 16.425 164.242C17.896 161.535 18.99 159.486 23.01 156.357L32.567 148.755C33.505 148.005 34.24 147.347 34.866 146.659C35.507 145.956 36.086 145.141 36.759 144.031C36.915 143.781 36.915 143.28 36.915 142.686L36.947 141.497C37.463 133.349 40.169 129.86 43.016 126.184C44.721 123.979 46.504 121.695 47.724 118.16C49.382 113.374 50.711 109.98 52.025 106.586C53.198 103.566 54.371 100.548 55.779 96.5898C54.622 95.7618 53.167 94.8858 50.868 93.5248L38.839 119.585C36.915 123.762 34.303 126.296 31.8 128.735C28.531 131.911 25.418 134.929 24.855 141.764L24.808 142.688C24.792 143.97 24.792 145.002 23.822 146.208C22.774 147.537 21.804 148.538 20.757 149.414C19.677 150.306 18.567 151.041 17.174 151.886L4.426 159.519C-0.125999 162.194 -1.393 163.946 -3.051 166.261C-4.068 167.669 -5.21 169.28 -7.134 171.313C-8.542 172.815 -9.558 173.488 -10.591 174.16C-11.154 174.536 -11.733 174.928 -12.405 175.506C-14.141 177.024 -15.784 178.055 -17.38 179.041C-18.647 179.839 -19.882 180.621 -21.009 181.544C-22.01 182.373 -22.87 182.982 -23.73 183.593C-24.497 184.125 -25.263 184.656 -25.999 185.25L-26.045 185.298C-33.867 191.617 -41.468 197.827 -49.055 204.037L-56 209.699C-44.767 209.056 -34.318 208.493 -24.01 208.071ZM299.997 120.132L306.097 204.317C339.149 204.317 370.838 205.678 404 206.961C395.193 199.891 377.987 186.032 376.688 184.187C375.061 181.856 374.702 179.212 374.342 176.522C373.982 173.785 373.607 171.001 371.572 169.249L371.541 169.202C369.602 167.576 366.145 168.482 362.125 169.531C357.197 170.813 351.535 172.299 345.514 170.281C344.372 169.89 343.325 169.499 342.307 169.108C341.025 168.591 339.71 168.123 338.412 167.637C337.927 167.449 337.552 167.089 337.348 166.636L335.738 163.226C332.86 157.142 328.34 147.616 327.885 143.626C327.729 142.219 327.885 139.81 328.042 137.276C328.26 134.006 328.495 130.518 328.26 130.206C328.183 130.112 327.401 129.878 326.367 129.597C324.179 129.001 321.362 128.595 320.251 128.439C310.742 127.187 309.317 126.25 303.547 122.449L299.997 120.132Z" fill="black"/>
</svg>
