<svg width="32" height="32" viewBox="0 0 32 32" fill="none" xmlns="http://www.w3.org/2000/svg">
<path d="M6.0026 22.0004C4.0026 23.6804 3.33594 28.6671 3.33594 28.6671C3.33594 28.6671 8.3226 28.0004 10.0026 26.0004C10.9493 24.8804 10.9359 23.1604 9.8826 22.1204C9.36435 21.6258 8.68166 21.3399 7.96557 21.3178C7.24948 21.2956 6.55044 21.5387 6.0026 22.0004Z" stroke="#8F6E56" stroke-width="2.66667" stroke-linecap="round" stroke-linejoin="round"/>
<path d="M16 19.9997L12 15.9997C12.7095 14.1589 13.6029 12.3944 14.6667 10.733C16.2202 8.249 18.3835 6.20374 20.9507 4.7918C23.5178 3.37986 26.4036 2.64817 29.3333 2.66635C29.3333 6.29301 28.2933 12.6663 21.3333 17.333C19.6492 18.398 17.8625 19.2913 16 19.9997Z" stroke="#8F6E56" stroke-width="2.66667" stroke-linecap="round" stroke-linejoin="round"/>
<path d="M12.0026 15.9997H5.33594C5.33594 15.9997 6.06927 11.9597 8.0026 10.6664C10.1626 9.22637 14.6693 10.6664 14.6693 10.6664" stroke="#8F6E56" stroke-width="2.66667" stroke-linecap="round" stroke-linejoin="round"/>
<path d="M16 19.9997V26.6663C16 26.6663 20.04 25.933 21.3333 23.9997C22.7733 21.8397 21.3333 17.333 21.3333 17.333" stroke="#8F6E56" stroke-width="2.66667" stroke-linecap="round" stroke-linejoin="round"/>
</svg>
